{"title":"Fall Out Boy Ft. Courtney Love - Rat A Tat [Music Video] 1080p [","uid":10098933,"size":133601610,"categoryP":"video","categoryS":"music_videos","magnet":"?xt=urn:btih:21a8bb2681db93769d097240be082eacc60a9ddd&amp;dn=Fall+Out+Boy+Ft.+Courtney+Love+-+Rat+A+Tat+%5BMusic+Video%5D+1080p+%5B&amp;tr=udp%3A%2F%2Ftracker.openbittorrent.com%3A80&amp;tr=udp%3A%2F%2Fopen.demonii.com%3A1337&amp;tr=udp%3A%2F%2Ftracker.coppersurfer.tk%3A6969&amp;tr=udp%3A%2F%2Fexodus.desync.com%3A6969","seeders":1,"leechers":2,"uploader":"Sbyky","files":1,"time":1399351841,"description":"\n\nGeneral\nComplete name                            : Fall Out Boy Ft. Courtney Love - Rat A Tat [Music Video] 1080p [Sbyky].mp4\nFormat                                   : MPEG-4\nFormat profile                           : Base Media\nCodec ID                                 : isom\nFile size                                : 127 MiB\nDuration                                 : 4mn 42s\nOverall bit rate mode                    : Variable\nOverall bit rate                         : 3 788 Kbps\nEncoded date                             : UTC 2014-03-09 22:44:52\nTagged date                              : UTC 2014-03-09 22:44:52\n\nVideo\nID                                       : 1\nFormat                                   : AVC\nFormat/Info                              : Advanced Video Codec\nFormat profile                           : &lt;a class=&quot;__cf_email__&quot; href=&quot;/cdn-cgi/l/email-protection&quot; data-cfemail=&quot;ffb7969897bfb3cbd1cf&quot;&gt;[email&amp;#160;protected]&lt;/a&gt;&lt;script cf-hash='f9e31' type=&quot;text/javascript&quot;&gt;\n/* &lt;![CDATA[ */!function(){try{var t=&quot;currentScript&quot;in document?document.currentScript:function(){for(var t=document.getElementsByTagName(&quot;script&quot;),e=t.length;e--;)if(t[e].getAttribute(&quot;cf-hash&quot;))return t[e]}();if(t&amp;&amp;t.previousSibling){var e,r,n,i,c=t.previousSibling,a=c.getAttribute(&quot;data-cfemail&quot;);if(a){for(e=&quot;&quot;,r=parseInt(a.substr(0,2),16),n=2;a.length-n;n+=2)i=parseInt(a.substr(n,2),16)^r,e+=String.fromCharCode(i);e=document.createTextNode(e),c.parentNode.replaceChild(e,c)}}}catch(u){}}();/* ]]&gt; */&lt;/script&gt;\nFormat settings, CABAC                   : Yes\nFormat settings, ReFrames                : 3 frames\nCodec ID                                 : avc1\nCodec ID/Info                            : Advanced Video Coding\nDuration                                 : 4mn 42s\nDuration_LastFrame                       : -41ms\nBit rate                                 : 3 660 Kbps\nWidth                                    : 1 920 pixels\nHeight                                   : 1 080 pixels\nDisplay aspect ratio                     : 16:9\nFrame rate mode                          : Constant\nFrame rate                               : 23.976 fps\nColor space                              : YUV\nChroma subsampling                       : 4:2:0\nBit depth                                : 8 bits\nScan type                                : Progressive\nBits/(Pixel*Frame)                       : 0.074\nStream size                              : 123 MiB (97%)\nEncoded date                             : UTC 2014-03-09 22:44:52\nTagged date                              : UTC 2014-03-09 22:44:52\n\nAudio\nID                                       : 2\nFormat                                   : AAC\nFormat/Info                              : Advanced Audio Codec\nFormat profile                           : LC\nCodec ID                                 : 40\nDuration                                 : 4mn 42s\nBit rate mode                            : Variable\nBit rate                                 : 126 Kbps\nChannel(s)                               : 2 channels\nChannel positions                        : Front: L R\nSampling rate                            : 44.1 KHz\nCompression mode                         : Lossy\nStream size                              : 4.22 MiB (3%)\nEncoded date                             : UTC 2014-03-09 22:38:17\nTagged date                              : UTC 2014-03-09 22:38:17\n\nShared By Sbyky\n","torrent":{"xt":"urn:btih:21a8bb2681db93769d097240be082eacc60a9ddd","amp;dn":"Fall+Out+Boy+Ft.+Courtney+Love+-+Rat+A+Tat+%5BMusic+Video%5D+1080p+%5B","amp;tr":["udp%3A%2F%2Ftracker.openbittorrent.com%3A80","udp%3A%2F%2Fopen.demonii.com%3A1337","udp%3A%2F%2Ftracker.coppersurfer.tk%3A6969","udp%3A%2F%2Fexodus.desync.com%3A6969"],"infoHash":"21a8bb2681db93769d097240be082eacc60a9ddd","infoHashBuffer":{"type":"Buffer","data":[33,168,187,38,129,219,147,118,157,9,114,64,190,8,46,172,198,10,157,221]},"announce":[],"urlList":[]}}